<mxfile host="app.diagrams.net" agent="Mozilla/5.0 (Macintosh; Intel Mac OS X 10_15_7) AppleWebKit/605.1.15 (KHTML, like Gecko) Version/18.0 Safari/605.1.15" version="24.9.3">
  <diagram name="Page-1" id="xNSv_Cr6D6eYXkYYOSeu">
    <mxGraphModel dx="1266" dy="692" grid="0" gridSize="10" guides="1" tooltips="1" connect="1" arrows="1" fold="1" page="1" pageScale="1" pageWidth="850" pageHeight="1100" background="none" math="0" shadow="0">
      <root>
        <mxCell id="0" />
        <mxCell id="1" parent="0" />
        <mxCell id="HMm3c0mQo5H26Hu9wWOo-5" style="edgeStyle=orthogonalEdgeStyle;rounded=0;orthogonalLoop=1;jettySize=auto;html=1;" edge="1" parent="1" source="dJaUPLGE9bNAKMGCosSM-1">
          <mxGeometry relative="1" as="geometry">
            <mxPoint x="233" y="239" as="targetPoint" />
          </mxGeometry>
        </mxCell>
        <mxCell id="HMm3c0mQo5H26Hu9wWOo-6" value="Triggers for&lt;div&gt;Onboarding&lt;/div&gt;" style="edgeLabel;html=1;align=center;verticalAlign=middle;resizable=0;points=[];" vertex="1" connectable="0" parent="HMm3c0mQo5H26Hu9wWOo-5">
          <mxGeometry x="-0.0899" y="1" relative="1" as="geometry">
            <mxPoint as="offset" />
          </mxGeometry>
        </mxCell>
        <mxCell id="dJaUPLGE9bNAKMGCosSM-1" value="On Boarding Services&amp;nbsp;" style="shape=ext;double=1;rounded=1;whiteSpace=wrap;html=1;shadow=1;" parent="1" vertex="1">
          <mxGeometry x="13" y="199" width="137" height="80" as="geometry" />
        </mxCell>
        <mxCell id="dJaUPLGE9bNAKMGCosSM-2" value="" style="endArrow=classic;html=1;rounded=0;exitX=0.442;exitY=0.988;exitDx=0;exitDy=0;exitPerimeter=0;entryX=0.5;entryY=0;entryDx=0;entryDy=0;" parent="1" source="dJaUPLGE9bNAKMGCosSM-1" target="dJaUPLGE9bNAKMGCosSM-3" edge="1">
          <mxGeometry width="50" height="50" relative="1" as="geometry">
            <mxPoint x="351" y="383" as="sourcePoint" />
            <mxPoint x="82" y="353" as="targetPoint" />
          </mxGeometry>
        </mxCell>
        <mxCell id="dJaUPLGE9bNAKMGCosSM-3" value="Off-boarding Pipeline&lt;div style=&quot;text-align: left;&quot;&gt;&lt;br&gt;&lt;/div&gt;&lt;div style=&quot;text-align: left;&quot;&gt;INPUT PARAMETER:&lt;/div&gt;&lt;div style=&quot;text-align: left;&quot;&gt;Project ID&lt;/div&gt;&lt;div style=&quot;text-align: left;&quot;&gt;Repo_slug(***)&lt;/div&gt;" style="shape=ext;double=1;rounded=0;whiteSpace=wrap;html=1;verticalAlign=top;" parent="1" vertex="1">
          <mxGeometry x="10" y="351" width="133" height="88" as="geometry" />
        </mxCell>
        <mxCell id="dJaUPLGE9bNAKMGCosSM-5" value="&lt;font style=&quot;font-size: 9px;&quot;&gt;Trigger for De-Registering the Application Repo if exists&amp;nbsp;&lt;/font&gt;" style="text;strokeColor=none;align=center;fillColor=none;html=1;verticalAlign=middle;whiteSpace=wrap;rounded=0;" parent="1" vertex="1">
          <mxGeometry x="6" y="297" width="152" height="30" as="geometry" />
        </mxCell>
        <mxCell id="HMm3c0mQo5H26Hu9wWOo-3" style="edgeStyle=orthogonalEdgeStyle;rounded=0;orthogonalLoop=1;jettySize=auto;html=1;entryX=0;entryY=0.5;entryDx=0;entryDy=0;" edge="1" parent="1" source="HMm3c0mQo5H26Hu9wWOo-2" target="HMm3c0mQo5H26Hu9wWOo-7">
          <mxGeometry relative="1" as="geometry">
            <mxPoint x="535" y="241" as="targetPoint" />
          </mxGeometry>
        </mxCell>
        <mxCell id="HMm3c0mQo5H26Hu9wWOo-4" value="Creates Triggers&amp;nbsp;&lt;div&gt;and&amp;nbsp;&lt;/div&gt;&lt;div&gt;Passes Json Path&lt;/div&gt;&lt;div&gt;&lt;br&gt;&lt;/div&gt;" style="edgeLabel;html=1;align=center;verticalAlign=middle;resizable=0;points=[];" vertex="1" connectable="0" parent="HMm3c0mQo5H26Hu9wWOo-3">
          <mxGeometry x="-0.219" relative="1" as="geometry">
            <mxPoint x="4" y="2" as="offset" />
          </mxGeometry>
        </mxCell>
        <mxCell id="HMm3c0mQo5H26Hu9wWOo-2" value="Onboarding Pipeline&lt;div&gt;INPUT - Json Path&lt;/div&gt;" style="rounded=1;whiteSpace=wrap;html=1;" vertex="1" parent="1">
          <mxGeometry x="235" y="204.5" width="129" height="69" as="geometry" />
        </mxCell>
        <mxCell id="HMm3c0mQo5H26Hu9wWOo-9" style="edgeStyle=orthogonalEdgeStyle;rounded=0;orthogonalLoop=1;jettySize=auto;html=1;entryX=0;entryY=0.5;entryDx=0;entryDy=0;" edge="1" parent="1" source="HMm3c0mQo5H26Hu9wWOo-7" target="HMm3c0mQo5H26Hu9wWOo-8">
          <mxGeometry relative="1" as="geometry" />
        </mxCell>
        <mxCell id="HMm3c0mQo5H26Hu9wWOo-10" value="Checks" style="edgeLabel;html=1;align=center;verticalAlign=middle;resizable=0;points=[];" vertex="1" connectable="0" parent="HMm3c0mQo5H26Hu9wWOo-9">
          <mxGeometry x="-0.0652" y="-1" relative="1" as="geometry">
            <mxPoint as="offset" />
          </mxGeometry>
        </mxCell>
        <mxCell id="HMm3c0mQo5H26Hu9wWOo-31" style="edgeStyle=orthogonalEdgeStyle;rounded=0;orthogonalLoop=1;jettySize=auto;html=1;entryX=0.5;entryY=0;entryDx=0;entryDy=0;" edge="1" parent="1" source="HMm3c0mQo5H26Hu9wWOo-7" target="HMm3c0mQo5H26Hu9wWOo-30">
          <mxGeometry relative="1" as="geometry" />
        </mxCell>
        <mxCell id="HMm3c0mQo5H26Hu9wWOo-32" value="Triggers after completion of artifact pipeline&lt;div&gt;&amp;amp;&lt;/div&gt;&lt;div&gt;Passes the values of all input variables&lt;/div&gt;" style="edgeLabel;html=1;align=center;verticalAlign=middle;resizable=0;points=[];" vertex="1" connectable="0" parent="HMm3c0mQo5H26Hu9wWOo-31">
          <mxGeometry x="-0.0374" y="3" relative="1" as="geometry">
            <mxPoint as="offset" />
          </mxGeometry>
        </mxCell>
        <mxCell id="HMm3c0mQo5H26Hu9wWOo-7" value="Application Repo Trigger&lt;div&gt;INPUT - Json Path, Cache Bucket&lt;/div&gt;" style="rounded=1;whiteSpace=wrap;html=1;" vertex="1" parent="1">
          <mxGeometry x="509" y="209" width="120" height="60" as="geometry" />
        </mxCell>
        <mxCell id="HMm3c0mQo5H26Hu9wWOo-12" style="edgeStyle=orthogonalEdgeStyle;rounded=0;orthogonalLoop=1;jettySize=auto;html=1;entryX=0;entryY=0.5;entryDx=0;entryDy=0;" edge="1" parent="1" source="HMm3c0mQo5H26Hu9wWOo-8" target="HMm3c0mQo5H26Hu9wWOo-11">
          <mxGeometry relative="1" as="geometry" />
        </mxCell>
        <mxCell id="HMm3c0mQo5H26Hu9wWOo-13" value="YES" style="edgeLabel;html=1;align=center;verticalAlign=middle;resizable=0;points=[];" vertex="1" connectable="0" parent="HMm3c0mQo5H26Hu9wWOo-12">
          <mxGeometry x="0.0333" y="-2" relative="1" as="geometry">
            <mxPoint x="-2" y="-2" as="offset" />
          </mxGeometry>
        </mxCell>
        <mxCell id="HMm3c0mQo5H26Hu9wWOo-8" value="build.sh" style="rhombus;whiteSpace=wrap;html=1;" vertex="1" parent="1">
          <mxGeometry x="721" y="199" width="80" height="80" as="geometry" />
        </mxCell>
        <mxCell id="HMm3c0mQo5H26Hu9wWOo-15" style="edgeStyle=orthogonalEdgeStyle;rounded=0;orthogonalLoop=1;jettySize=auto;html=1;entryX=0;entryY=0.5;entryDx=0;entryDy=0;" edge="1" parent="1" source="HMm3c0mQo5H26Hu9wWOo-11">
          <mxGeometry relative="1" as="geometry">
            <mxPoint x="1006" y="237" as="targetPoint" />
          </mxGeometry>
        </mxCell>
        <mxCell id="HMm3c0mQo5H26Hu9wWOo-16" value="NO" style="edgeLabel;html=1;align=center;verticalAlign=middle;resizable=0;points=[];" vertex="1" connectable="0" parent="HMm3c0mQo5H26Hu9wWOo-15">
          <mxGeometry x="-0.1045" y="-2" relative="1" as="geometry">
            <mxPoint as="offset" />
          </mxGeometry>
        </mxCell>
        <mxCell id="HMm3c0mQo5H26Hu9wWOo-19" style="edgeStyle=orthogonalEdgeStyle;rounded=0;orthogonalLoop=1;jettySize=auto;html=1;" edge="1" parent="1" source="HMm3c0mQo5H26Hu9wWOo-11">
          <mxGeometry relative="1" as="geometry">
            <mxPoint x="1018" y="404" as="targetPoint" />
            <Array as="points">
              <mxPoint x="899" y="404" />
            </Array>
          </mxGeometry>
        </mxCell>
        <mxCell id="HMm3c0mQo5H26Hu9wWOo-20" value="YES" style="edgeLabel;html=1;align=center;verticalAlign=middle;resizable=0;points=[];" vertex="1" connectable="0" parent="HMm3c0mQo5H26Hu9wWOo-19">
          <mxGeometry x="-0.6497" y="1" relative="1" as="geometry">
            <mxPoint as="offset" />
          </mxGeometry>
        </mxCell>
        <mxCell id="HMm3c0mQo5H26Hu9wWOo-11" value="Release Branch" style="rhombus;whiteSpace=wrap;html=1;" vertex="1" parent="1">
          <mxGeometry x="859" y="197" width="80" height="80" as="geometry" />
        </mxCell>
        <mxCell id="HMm3c0mQo5H26Hu9wWOo-17" value="Runs build.sh&lt;div&gt;&amp;amp;&lt;/div&gt;&lt;div&gt;Push SFHP_application.json only to Artifact Registry&lt;/div&gt;" style="rounded=0;whiteSpace=wrap;html=1;" vertex="1" parent="1">
          <mxGeometry x="1006" y="183" width="264" height="112" as="geometry" />
        </mxCell>
        <mxCell id="HMm3c0mQo5H26Hu9wWOo-22" value="Runs build.sh&lt;div&gt;&amp;amp;&lt;/div&gt;&lt;div&gt;Push artifacts to Artifact Registry&lt;/div&gt;" style="rounded=0;whiteSpace=wrap;html=1;" vertex="1" parent="1">
          <mxGeometry x="1019" y="351" width="253" height="100" as="geometry" />
        </mxCell>
        <mxCell id="HMm3c0mQo5H26Hu9wWOo-28" style="edgeStyle=orthogonalEdgeStyle;rounded=0;orthogonalLoop=1;jettySize=auto;html=1;entryX=0;entryY=0.5;entryDx=0;entryDy=0;" edge="1" parent="1" source="HMm3c0mQo5H26Hu9wWOo-23" target="HMm3c0mQo5H26Hu9wWOo-26">
          <mxGeometry relative="1" as="geometry" />
        </mxCell>
        <mxCell id="HMm3c0mQo5H26Hu9wWOo-29" value="NO" style="edgeLabel;html=1;align=center;verticalAlign=middle;resizable=0;points=[];" vertex="1" connectable="0" parent="HMm3c0mQo5H26Hu9wWOo-28">
          <mxGeometry x="-0.1628" y="-2" relative="1" as="geometry">
            <mxPoint as="offset" />
          </mxGeometry>
        </mxCell>
        <mxCell id="HMm3c0mQo5H26Hu9wWOo-23" value="Release Branch" style="rhombus;whiteSpace=wrap;html=1;" vertex="1" parent="1">
          <mxGeometry x="724" y="507" width="80" height="80" as="geometry" />
        </mxCell>
        <mxCell id="HMm3c0mQo5H26Hu9wWOo-24" style="edgeStyle=orthogonalEdgeStyle;rounded=0;orthogonalLoop=1;jettySize=auto;html=1;entryX=0.463;entryY=0.088;entryDx=0;entryDy=0;entryPerimeter=0;" edge="1" parent="1" source="HMm3c0mQo5H26Hu9wWOo-8" target="HMm3c0mQo5H26Hu9wWOo-23">
          <mxGeometry relative="1" as="geometry" />
        </mxCell>
        <mxCell id="HMm3c0mQo5H26Hu9wWOo-25" value="NO" style="edgeLabel;html=1;align=center;verticalAlign=middle;resizable=0;points=[];" vertex="1" connectable="0" parent="HMm3c0mQo5H26Hu9wWOo-24">
          <mxGeometry x="-0.0576" y="-1" relative="1" as="geometry">
            <mxPoint as="offset" />
          </mxGeometry>
        </mxCell>
        <mxCell id="HMm3c0mQo5H26Hu9wWOo-26" value="Runs Maven Package Command&lt;div&gt;&amp;amp;&lt;/div&gt;&lt;div&gt;Push SFHP_application.json only to Artifact Registry&lt;/div&gt;" style="rounded=0;whiteSpace=wrap;html=1;" vertex="1" parent="1">
          <mxGeometry x="1019" y="498" width="255" height="98" as="geometry" />
        </mxCell>
        <mxCell id="HMm3c0mQo5H26Hu9wWOo-34" style="edgeStyle=orthogonalEdgeStyle;rounded=0;orthogonalLoop=1;jettySize=auto;html=1;entryX=1;entryY=0.5;entryDx=0;entryDy=0;" edge="1" parent="1" source="HMm3c0mQo5H26Hu9wWOo-30" target="HMm3c0mQo5H26Hu9wWOo-33">
          <mxGeometry relative="1" as="geometry" />
        </mxCell>
        <mxCell id="HMm3c0mQo5H26Hu9wWOo-35" value="Pushes Images" style="edgeLabel;html=1;align=center;verticalAlign=middle;resizable=0;points=[];" vertex="1" connectable="0" parent="HMm3c0mQo5H26Hu9wWOo-34">
          <mxGeometry x="0.0061" y="-2" relative="1" as="geometry">
            <mxPoint as="offset" />
          </mxGeometry>
        </mxCell>
        <mxCell id="HMm3c0mQo5H26Hu9wWOo-30" value="Image Build Trigger&lt;div&gt;INPUT - Group_ID, Version, Artifact_ID, Nexus Name, Binary&lt;/div&gt;" style="whiteSpace=wrap;html=1;aspect=fixed;" vertex="1" parent="1">
          <mxGeometry x="505" y="481" width="132" height="132" as="geometry" />
        </mxCell>
        <mxCell id="HMm3c0mQo5H26Hu9wWOo-33" value="Artifact Registry" style="shape=hexagon;perimeter=hexagonPerimeter2;whiteSpace=wrap;html=1;fixedSize=1;" vertex="1" parent="1">
          <mxGeometry x="239.5" y="504" width="120" height="80" as="geometry" />
        </mxCell>
      </root>
    </mxGraphModel>
  </diagram>
</mxfile>
